<svg width="1440" height="5957" viewBox="0 0 1440 5957" fill="none" xmlns="http://www.w3.org/2000/svg">
<g clip-path="url(#clip0_1_2)">
<rect width="1440" height="5957" fill="white"/>
<line x1="1019.33" y1="293.371" x2="650.335" y2="626.371" stroke="black" stroke-opacity="0.5"/>
<line x1="1068.33" y1="293.374" x2="638.332" y2="675.374" stroke="black" stroke-opacity="0.5"/>
<line x1="1098.33" y1="304.374" x2="680.332" y2="675.374" stroke="black" stroke-opacity="0.5"/>
<line x1="1135.33" y1="313.372" x2="670.334" y2="731.372" stroke="black" stroke-opacity="0.5"/>
<line x1="183.44" y1="1261.2" x2="183.996" y2="1758.24" stroke="black" stroke-opacity="0.5"/>
<line x1="216.228" y1="1224.79" x2="212.38" y2="1799.95" stroke="black" stroke-opacity="0.5"/>
<line x1="244.476" y1="1209.86" x2="240.484" y2="1768.74" stroke="black" stroke-opacity="0.5"/>
<line x1="275.922" y1="1188.38" x2="275.408" y2="1813.64" stroke="black" stroke-opacity="0.5"/>
<line x1="375.63" y1="3963.2" x2="504.563" y2="4443.23" stroke="black" stroke-opacity="0.5" stroke-dasharray="10 10"/>
<line x1="397.899" y1="3919.56" x2="542.758" y2="4476.19" stroke="black" stroke-opacity="0.5" stroke-dasharray="10 10"/>
<line x1="421.331" y1="3897.83" x2="561.845" y2="4438.78" stroke="black" stroke-opacity="0.5" stroke-dasharray="10 10"/>
<line x1="446.162" y1="3868.96" x2="607.183" y2="4473.13" stroke="black" stroke-opacity="0.5" stroke-dasharray="10 10"/>
<line x1="1351.32" y1="5112.38" x2="1790.38" y2="5557.56" stroke="black" stroke-opacity="0.5" stroke-dasharray="10 10"/>
<line x1="1280.08" y1="5152.98" x2="1719.13" y2="5598.16" stroke="black" stroke-opacity="0.5" stroke-dasharray="10 10"/>
<line x1="1208.84" y1="5193.58" x2="1647.89" y2="5638.76" stroke="black" stroke-opacity="0.5" stroke-dasharray="10 10"/>
<line x1="1137.6" y1="5234.19" x2="1576.65" y2="5679.36" stroke="black" stroke-opacity="0.5" stroke-dasharray="10 10"/>
<line x1="1066.36" y1="5274.79" x2="1505.41" y2="5719.97" stroke="black" stroke-opacity="0.5" stroke-dasharray="10 10"/>
<line x1="-28.675" y1="5496.38" x2="410.375" y2="5941.56" stroke="black" stroke-opacity="0.5" stroke-dasharray="10 10"/>
<line x1="-99.9173" y1="5536.98" x2="339.133" y2="5982.16" stroke="black" stroke-opacity="0.5" stroke-dasharray="10 10"/>
<line x1="-171.16" y1="5577.58" x2="267.891" y2="6022.76" stroke="black" stroke-opacity="0.5" stroke-dasharray="10 10"/>
<line x1="-242.402" y1="5618.19" x2="196.649" y2="6063.36" stroke="black" stroke-opacity="0.5" stroke-dasharray="10 10"/>
<line x1="-313.644" y1="5658.79" x2="125.406" y2="6103.97" stroke="black" stroke-opacity="0.5" stroke-dasharray="10 10"/>
<rect x="1099.68" y="-188.163" width="566" height="468" transform="rotate(15.3761 1099.68 -188.163)" fill="#B0D2D7" fill-opacity="0.56" stroke="black"/>
<path d="M447.468 118.022C447.703 121.327 447.861 124.65 447.941 127.991L447.441 128.002C447.48 129.664 447.5 131.33 447.5 133C447.5 134.67 447.48 136.336 447.441 137.998L447.941 138.01C447.861 141.35 447.703 144.673 447.468 147.979L446.969 147.943C446.732 151.266 446.416 154.569 446.024 157.853L446.521 157.913C446.125 161.229 445.65 164.525 445.099 167.799L444.606 167.716C444.054 171 443.424 174.262 442.719 177.501L443.207 177.607C442.498 180.866 441.712 184.101 440.851 187.311L440.368 187.181C439.507 190.393 438.571 193.579 437.562 196.739L438.039 196.891C437.025 200.064 435.938 203.21 434.779 206.328L434.311 206.154C433.153 209.268 431.924 212.353 430.625 215.409L431.085 215.605C429.782 218.668 428.409 221.701 426.968 224.703L426.517 224.487C425.08 227.479 423.575 230.44 422.003 233.368L422.443 233.604C420.87 236.534 419.231 239.431 417.526 242.294L417.097 242.038C415.4 244.889 413.638 247.705 411.814 250.486L412.232 250.76C410.409 253.54 408.523 256.283 406.577 258.991L406.171 258.699C404.235 261.391 402.238 264.048 400.183 266.666L400.576 266.975C398.524 269.589 396.413 272.166 394.246 274.703L393.865 274.378C391.713 276.898 389.505 279.378 387.242 281.819L387.609 282.159C385.351 284.594 383.04 286.989 380.676 289.342L380.323 288.988C377.975 291.326 375.574 293.623 373.124 295.878L373.462 296.246C371.018 298.495 368.525 300.701 365.982 302.865L365.658 302.484C363.134 304.633 360.561 306.739 357.942 308.8L358.251 309.193C355.643 311.247 352.988 313.257 350.29 315.222L349.995 314.818C347.318 316.767 344.597 318.672 341.834 320.531L342.113 320.946C339.36 322.799 336.565 324.606 333.729 326.367L333.466 325.943C330.651 327.691 327.796 329.393 324.902 331.048L325.151 331.482C322.268 333.131 319.347 334.733 316.39 336.288L316.157 335.845C313.225 337.386 310.256 338.88 307.253 340.326L307.47 340.776C304.481 342.214 301.458 343.605 298.403 344.946L298.202 344.488C295.169 345.82 292.103 347.102 289.007 348.336L289.192 348.8C286.108 350.028 282.993 351.208 279.848 352.336L279.679 351.866C276.559 352.986 273.41 354.057 270.232 355.077L270.385 355.553C267.229 356.566 264.046 357.529 260.836 358.441L260.699 357.96C257.515 358.866 254.304 359.72 251.069 360.524L251.19 361.009C247.969 361.809 244.724 362.558 241.456 363.256L241.351 362.767C238.109 363.458 234.843 364.099 231.556 364.688L231.644 365.18C228.384 365.764 225.102 366.296 221.799 366.777L221.728 366.282C218.452 366.758 215.157 367.183 211.844 367.556L211.9 368.053C208.602 368.424 205.286 368.743 201.953 369.009L201.913 368.51C198.611 368.774 195.292 368.986 191.956 369.145L191.98 369.644C188.673 369.802 185.35 369.907 182.012 369.96L182.004 369.46C180.34 369.487 178.672 369.5 177 369.5C175.329 369.5 173.661 369.487 171.996 369.46L171.988 369.96C168.651 369.907 165.327 369.802 162.02 369.644L162.044 369.145C158.708 368.986 155.389 368.774 152.087 368.51L152.047 369.009C148.714 368.743 145.398 368.424 142.101 368.053L142.156 367.556C138.843 367.184 135.548 366.758 132.273 366.282L132.201 366.777C128.898 366.296 125.616 365.764 122.356 365.18L122.444 364.688C119.157 364.099 115.891 363.458 112.649 362.767L112.544 363.256C109.276 362.558 106.031 361.809 102.81 361.009L102.931 360.524C99.6958 359.72 96.4852 358.866 93.3007 357.96L93.164 358.441C89.9543 357.529 86.7709 356.566 83.6151 355.553L83.7679 355.077C80.5904 354.057 77.4409 352.986 74.3207 351.866L74.1518 352.336C71.0072 351.208 67.8923 350.028 64.8083 348.8L64.9933 348.336C61.8966 347.102 58.8312 345.82 55.7984 344.488L55.5974 344.946C52.5416 343.605 49.5188 342.214 46.5303 340.776L46.7472 340.326C43.7437 338.88 40.775 337.386 37.8426 335.845L37.61 336.288C34.6525 334.733 31.7318 333.131 28.8492 331.482L29.0975 331.048C26.2041 329.393 23.3493 327.691 20.5344 325.943L20.2706 326.367C17.435 324.606 14.6399 322.799 11.8866 320.946L12.1657 320.531C9.40257 318.672 6.68169 316.767 4.00455 314.818L3.71025 315.222C1.01151 313.257 -1.64289 311.247 -4.25145 309.193L-3.94216 308.801C-6.56107 306.739 -9.13364 304.633 -11.6583 302.484L-11.9824 302.865C-14.5245 300.701 -17.0182 298.495 -19.462 296.246L-19.1235 295.878C-21.5742 293.623 -23.9746 291.326 -26.323 288.988L-26.6758 289.342C-29.0398 286.989 -31.3513 284.594 -33.6087 282.159L-33.2421 281.819C-35.5049 279.378 -37.7132 276.898 -39.8654 274.378L-40.2456 274.703C-42.413 272.166 -44.5236 269.589 -46.5759 266.975L-46.1826 266.666C-48.238 264.048 -50.2347 261.391 -52.171 258.699L-52.5769 258.991C-54.5235 256.284 -56.4092 253.54 -58.2324 250.76L-57.8143 250.486C-59.6384 247.705 -61.3998 244.889 -63.0967 242.038L-63.5263 242.294C-65.2307 239.431 -66.8702 236.534 -68.4432 233.604L-68.0027 233.368C-69.5746 230.44 -71.08 227.479 -72.5169 224.487L-72.9676 224.703C-74.4092 221.701 -75.7822 218.668 -77.0848 215.605L-76.6247 215.409C-77.9241 212.353 -79.1534 209.268 -80.3107 206.154L-80.7794 206.328C-81.9383 203.21 -83.0252 200.064 -84.0386 196.891L-83.5623 196.739C-84.5713 193.579 -85.5072 190.393 -86.3681 187.181L-86.8511 187.311C-87.7117 184.101 -88.4976 180.866 -89.2073 177.607L-88.7187 177.5C-89.424 174.262 -90.0537 171 -90.6062 167.716L-91.0993 167.799C-91.6502 164.525 -92.1245 161.229 -92.5207 157.913L-92.0242 157.853C-92.4165 154.569 -92.7319 151.265 -92.9688 147.943L-93.4675 147.978C-93.7032 144.673 -93.8615 141.35 -93.9407 138.009L-93.4408 137.998C-93.4802 136.336 -93.5 134.67 -93.5 133C-93.5 131.33 -93.4802 129.664 -93.4408 128.002L-93.9407 127.99C-93.8615 124.65 -93.7032 121.327 -93.4675 118.021L-92.9688 118.057C-92.7319 114.734 -92.4165 111.431 -92.0242 108.147L-92.5207 108.087C-92.1245 104.771 -91.6502 101.475 -91.0993 98.2008L-90.6062 98.2837C-90.0537 94.9998 -89.424 91.7379 -88.7187 88.4994L-89.2072 88.393C-88.4976 85.1342 -87.7116 81.8992 -86.8511 78.6893L-86.3681 78.8187C-85.5071 75.6072 -84.5713 72.4209 -83.5623 69.2613L-84.0386 69.1092C-83.0252 65.936 -81.9382 62.7897 -80.7794 59.6718L-80.3107 59.846C-79.1533 56.7321 -77.9241 53.6466 -76.6246 50.5908L-77.0848 50.3951C-75.7821 47.332 -74.4092 44.2987 -72.9676 41.2969L-72.5169 41.5134C-71.0799 38.5213 -69.5746 35.5604 -68.0026 32.6323L-68.4432 32.3958C-66.8702 29.4659 -65.2307 26.5687 -63.5263 23.7058L-63.0967 23.9616C-61.3998 21.1113 -59.6384 18.295 -57.8143 15.5141L-58.2324 15.2398C-56.4092 12.4605 -54.5235 9.71653 -52.5769 7.00943L-52.171 7.30133C-50.2347 4.60854 -48.238 1.95223 -46.1826 -0.666115L-46.5759 -0.974854C-44.5236 -3.58917 -42.413 -6.16568 -40.2456 -8.70296L-39.8654 -8.3782C-37.7132 -10.8977 -35.5049 -13.3784 -33.2421 -15.819L-33.6087 -16.159C-31.3513 -18.5938 -29.0398 -20.9886 -26.6758 -23.3422L-26.323 -22.9878C-23.9746 -25.3259 -21.5742 -27.6231 -19.1235 -29.8782L-19.462 -30.2461C-17.0183 -32.4947 -14.5245 -34.7015 -11.9824 -36.8649L-11.6583 -36.4841C-9.13364 -38.6328 -6.56108 -40.7387 -3.94218 -42.8005L-4.25148 -43.1933C-1.64292 -45.247 1.01149 -47.257 3.71024 -49.2221L4.00455 -48.8179C6.68167 -50.7671 9.40255 -52.6721 12.1657 -54.5314L11.8866 -54.9463C14.6398 -56.799 17.435 -58.6064 20.2705 -60.3674L20.5343 -59.9426C23.3493 -61.6908 26.2041 -63.3931 29.0975 -65.0482L28.8492 -65.4822C31.7318 -67.1311 34.6525 -68.7334 37.61 -70.2876L37.8426 -69.845C40.775 -71.3862 43.7437 -72.8801 46.7471 -74.3256L46.5303 -74.7761C49.5188 -76.2144 52.5415 -77.6048 55.5974 -78.9461L55.7983 -78.4883C58.8311 -79.8195 61.8966 -81.1024 64.9933 -82.3357L64.8083 -82.8002C67.8922 -84.0284 71.0071 -85.2075 74.1517 -86.3364L74.3206 -85.8659C77.4409 -86.986 80.5904 -88.0567 83.7678 -89.0768L83.615 -89.5528C86.7709 -90.5659 89.9543 -91.5291 93.1639 -92.4414L93.3006 -91.9605C96.4852 -92.8656 99.6957 -93.7204 102.931 -94.524L102.81 -95.0092C106.031 -95.8092 109.276 -96.5583 112.544 -97.2556L112.649 -96.7666C115.891 -97.4584 119.157 -98.0992 122.444 -98.6877L122.356 -99.1799C125.616 -99.7638 128.898 -100.296 132.201 -100.777L132.272 -100.282C135.548 -100.758 138.843 -101.183 142.156 -101.556L142.1 -102.053C145.398 -102.424 148.714 -102.743 152.047 -103.009L152.087 -102.51C155.389 -102.774 158.708 -102.986 162.044 -103.145L162.02 -103.644C165.327 -103.802 168.65 -103.907 171.988 -103.96L171.996 -103.46C173.66 -103.487 175.328 -103.5 177 -103.5C178.671 -103.5 180.339 -103.487 182.004 -103.46L182.012 -103.96C185.349 -103.907 188.673 -103.802 191.98 -103.644L191.956 -103.145C195.292 -102.986 198.611 -102.774 201.913 -102.51L201.953 -103.009C205.286 -102.743 208.602 -102.424 211.899 -102.053L211.844 -101.556C215.157 -101.183 218.452 -100.758 221.727 -100.282L221.799 -100.777C225.102 -100.296 228.384 -99.7638 231.644 -99.1799L231.556 -98.6878C234.843 -98.0992 238.109 -97.4585 241.351 -96.7666L241.456 -97.2556C244.724 -96.5583 247.969 -95.8092 251.19 -95.0093L251.069 -94.524C254.304 -93.7205 257.515 -92.8656 260.699 -91.9605L260.836 -92.4414C264.046 -91.5292 267.229 -90.5659 270.385 -89.5528L270.232 -89.0768C273.41 -88.0567 276.559 -86.9861 279.679 -85.8659L279.848 -86.3365C282.993 -85.2075 286.108 -84.0284 289.192 -82.8002L289.007 -82.3357C292.103 -81.1024 295.169 -79.8196 298.202 -78.4883L298.403 -78.9461C301.458 -77.6048 304.481 -76.2144 307.47 -74.7762L307.253 -74.3256C310.256 -72.8801 313.225 -71.3862 316.157 -69.845L316.39 -70.2876C319.347 -68.7334 322.268 -67.1311 325.151 -65.4822L324.902 -65.0482C327.796 -63.3931 330.651 -61.6908 333.466 -59.9426L333.729 -60.3674C336.565 -58.6064 339.36 -56.799 342.113 -54.9463L341.834 -54.5314C344.597 -52.6721 347.318 -50.7671 349.995 -48.8179L350.29 -49.2221C352.988 -47.257 355.643 -45.247 358.251 -43.1933L357.942 -42.8005C360.561 -40.7387 363.134 -38.6328 365.658 -36.4841L365.982 -36.8649C368.525 -34.7015 371.018 -32.4947 373.462 -30.2461L373.123 -29.8782C375.574 -27.6231 377.975 -25.3259 380.323 -22.9878L380.676 -23.3422C383.04 -20.9886 385.351 -18.5938 387.609 -16.159L387.242 -15.819C389.505 -13.3784 391.713 -10.8977 393.865 -8.37822L394.246 -8.70297C396.413 -6.1657 398.524 -3.58919 400.576 -0.974869L400.183 -0.66613C402.238 1.95222 404.235 4.60852 406.171 7.30132L406.577 7.00942C408.523 9.71653 410.409 12.4605 412.232 15.2398L411.814 15.5141C413.638 18.295 415.4 21.1113 417.097 23.9616L417.526 23.7058C419.231 26.5688 420.87 29.4659 422.443 32.3958L422.003 32.6323C423.575 35.5604 425.08 38.5213 426.517 41.5134L426.968 41.297C428.409 44.2988 429.782 47.332 431.085 50.3952L430.625 50.5909C431.924 53.6467 433.153 56.7322 434.311 59.8461L434.779 59.6719C435.938 62.7898 437.025 65.9361 438.039 69.1093L437.562 69.2614C438.571 72.4211 439.507 75.6074 440.368 78.8188L440.851 78.6894C441.712 81.8993 442.498 85.1344 443.207 88.3931L442.719 88.4995C443.424 91.738 444.054 95 444.606 98.2839L445.099 98.2009C445.65 101.475 446.125 104.771 446.521 108.087L446.024 108.147C446.417 111.431 446.732 114.735 446.969 118.057L447.468 118.022Z" stroke="black" stroke-opacity="0.49" stroke-dasharray="10 10"/>
<path d="M1310.47 1711.02C1310.7 1714.33 1310.86 1717.65 1310.94 1720.99L1310.44 1721C1310.48 1722.66 1310.5 1724.33 1310.5 1726C1310.5 1727.67 1310.48 1729.34 1310.44 1731L1310.94 1731.01C1310.86 1734.35 1310.7 1737.67 1310.47 1740.98L1309.97 1740.94C1309.73 1744.27 1309.42 1747.57 1309.02 1750.85L1309.52 1750.91C1309.12 1754.23 1308.65 1757.53 1308.1 1760.8L1307.61 1760.72C1307.05 1764 1306.42 1767.26 1305.72 1770.5L1306.21 1770.61C1305.5 1773.87 1304.71 1777.1 1303.85 1780.31L1303.37 1780.18C1302.51 1783.39 1301.57 1786.58 1300.56 1789.74L1301.04 1789.89C1300.03 1793.06 1298.94 1796.21 1297.78 1799.33L1297.31 1799.15C1296.15 1802.27 1294.92 1805.35 1293.62 1808.41L1294.08 1808.6C1292.78 1811.67 1291.41 1814.7 1289.97 1817.7L1289.52 1817.49C1288.08 1820.48 1286.57 1823.44 1285 1826.37L1285.44 1826.6C1283.87 1829.53 1282.23 1832.43 1280.53 1835.29L1280.1 1835.04C1278.4 1837.89 1276.64 1840.71 1274.81 1843.49L1275.23 1843.76C1273.41 1846.54 1271.52 1849.28 1269.58 1851.99L1269.17 1851.7C1267.23 1854.39 1265.24 1857.05 1263.18 1859.67L1263.58 1859.97C1261.52 1862.59 1259.41 1865.17 1257.25 1867.7L1256.87 1867.38C1254.71 1869.9 1252.5 1872.38 1250.24 1874.82L1250.61 1875.16C1248.35 1877.59 1246.04 1879.99 1243.68 1882.34L1243.32 1881.99C1240.97 1884.33 1238.57 1886.62 1236.12 1888.88L1236.46 1889.25C1234.02 1891.49 1231.52 1893.7 1228.98 1895.86L1228.66 1895.48C1226.13 1897.63 1223.56 1899.74 1220.94 1901.8L1221.25 1902.19C1218.64 1904.25 1215.99 1906.26 1213.29 1908.22L1213 1907.82C1210.32 1909.77 1207.6 1911.67 1204.83 1913.53L1205.11 1913.95C1202.36 1915.8 1199.57 1917.61 1196.73 1919.37L1196.47 1918.94C1193.65 1920.69 1190.8 1922.39 1187.9 1924.05L1188.15 1924.48C1185.27 1926.13 1182.35 1927.73 1179.39 1929.29L1179.16 1928.85C1176.22 1930.39 1173.26 1931.88 1170.25 1933.33L1170.47 1933.78C1167.48 1935.21 1164.46 1936.6 1161.4 1937.95L1161.2 1937.49C1158.17 1938.82 1155.1 1940.1 1152.01 1941.34L1152.19 1941.8C1149.11 1943.03 1145.99 1944.21 1142.85 1945.34L1142.68 1944.87C1139.56 1945.99 1136.41 1947.06 1133.23 1948.08L1133.38 1948.55C1130.23 1949.57 1127.05 1950.53 1123.84 1951.44L1123.7 1950.96C1120.51 1951.87 1117.3 1952.72 1114.07 1953.52L1114.19 1954.01C1110.97 1954.81 1107.72 1955.56 1104.46 1956.26L1104.35 1955.77C1101.11 1956.46 1097.84 1957.1 1094.56 1957.69L1094.64 1958.18C1091.38 1958.76 1088.1 1959.3 1084.8 1959.78L1084.73 1959.28C1081.45 1959.76 1078.16 1960.18 1074.84 1960.56L1074.9 1961.05C1071.6 1961.42 1068.29 1961.74 1064.95 1962.01L1064.91 1961.51C1061.61 1961.77 1058.29 1961.99 1054.96 1962.14L1054.98 1962.64C1051.67 1962.8 1048.35 1962.91 1045.01 1962.96L1045 1962.46C1043.34 1962.49 1041.67 1962.5 1040 1962.5C1038.33 1962.5 1036.66 1962.49 1035 1962.46L1034.99 1962.96C1031.65 1962.91 1028.33 1962.8 1025.02 1962.64L1025.04 1962.14C1021.71 1961.99 1018.39 1961.77 1015.09 1961.51L1015.05 1962.01C1011.71 1961.74 1008.4 1961.42 1005.1 1961.05L1005.16 1960.56C1001.84 1960.18 998.548 1959.76 995.273 1959.28L995.201 1959.78C991.898 1959.3 988.616 1958.76 985.356 1958.18L985.444 1957.69C982.157 1957.1 978.891 1956.46 975.649 1955.77L975.544 1956.26C972.276 1955.56 969.031 1954.81 965.81 1954.01L965.931 1953.52C962.696 1952.72 959.485 1951.87 956.301 1950.96L956.164 1951.44C952.954 1950.53 949.771 1949.57 946.615 1948.55L946.768 1948.08C943.59 1947.06 940.441 1945.99 937.321 1944.87L937.152 1945.34C934.007 1944.21 930.892 1943.03 927.808 1941.8L927.993 1941.34C924.897 1940.1 921.831 1938.82 918.798 1937.49L918.597 1937.95C915.542 1936.6 912.519 1935.21 909.53 1933.78L909.747 1933.33C906.744 1931.88 903.775 1930.39 900.843 1928.85L900.61 1929.29C897.653 1927.73 894.732 1926.13 891.849 1924.48L892.098 1924.05C889.204 1922.39 886.349 1920.69 883.534 1918.94L883.271 1919.37C880.435 1917.61 877.64 1915.8 874.887 1913.95L875.166 1913.53C872.403 1911.67 869.682 1909.77 867.005 1907.82L866.71 1908.22C864.012 1906.26 861.357 1904.25 858.749 1902.19L859.058 1901.8C856.439 1899.74 853.866 1897.63 851.342 1895.48L851.018 1895.86C848.475 1893.7 845.982 1891.49 843.538 1889.25L843.877 1888.88C841.426 1886.62 839.025 1884.33 836.677 1881.99L836.324 1882.34C833.96 1879.99 831.649 1877.59 829.391 1875.16L829.758 1874.82C827.495 1872.38 825.287 1869.9 823.135 1867.38L822.754 1867.7C820.587 1865.17 818.476 1862.59 816.424 1859.97L816.817 1859.67C814.762 1857.05 812.765 1854.39 810.829 1851.7L810.423 1851.99C808.477 1849.28 806.591 1846.54 804.768 1843.76L805.186 1843.49C803.362 1840.71 801.6 1837.89 799.903 1835.04L799.474 1835.29C797.769 1832.43 796.13 1829.53 794.557 1826.6L794.997 1826.37C793.425 1823.44 791.92 1820.48 790.483 1817.49L790.032 1817.7C788.591 1814.7 787.218 1811.67 785.915 1808.6L786.375 1808.41C785.076 1805.35 783.847 1802.27 782.689 1799.15L782.221 1799.33C781.062 1796.21 779.975 1793.06 778.961 1789.89L779.438 1789.74C778.429 1786.58 777.493 1783.39 776.632 1780.18L776.149 1780.31C775.288 1777.1 774.502 1773.87 773.793 1770.61L774.281 1770.5C773.576 1767.26 772.946 1764 772.394 1760.72L771.901 1760.8C771.35 1757.52 770.875 1754.23 770.479 1750.91L770.976 1750.85C770.584 1747.57 770.268 1744.27 770.031 1740.94L769.532 1740.98C769.297 1737.67 769.139 1734.35 769.059 1731.01L769.559 1731C769.52 1729.34 769.5 1727.67 769.5 1726C769.5 1724.33 769.52 1722.66 769.559 1721L769.059 1720.99C769.139 1717.65 769.297 1714.33 769.532 1711.02L770.031 1711.06C770.268 1707.73 770.584 1704.43 770.976 1701.15L770.479 1701.09C770.875 1697.77 771.35 1694.47 771.901 1691.2L772.394 1691.28C772.946 1688 773.576 1684.74 774.281 1681.5L773.793 1681.39C774.502 1678.13 775.288 1674.9 776.149 1671.69L776.632 1671.82C777.493 1668.61 778.429 1665.42 779.438 1662.26L778.961 1662.11C779.975 1658.94 781.062 1655.79 782.221 1652.67L782.689 1652.85C783.847 1649.73 785.076 1646.65 786.375 1643.59L785.915 1643.4C787.218 1640.33 788.591 1637.3 790.032 1634.3L790.483 1634.51C791.92 1631.52 793.425 1628.56 794.997 1625.63L794.557 1625.4C796.13 1622.47 797.769 1619.57 799.474 1616.71L799.903 1616.96C801.6 1614.11 803.362 1611.29 805.186 1608.51L804.768 1608.24C806.591 1605.46 808.476 1602.72 810.423 1600.01L810.829 1600.3C812.765 1597.61 814.762 1594.95 816.817 1592.33L816.424 1592.03C818.476 1589.41 820.587 1586.83 822.754 1584.3L823.135 1584.62C825.287 1582.1 827.495 1579.62 829.758 1577.18L829.391 1576.84C831.649 1574.41 833.96 1572.01 836.324 1569.66L836.677 1570.01C839.025 1567.67 841.426 1565.38 843.877 1563.12L843.538 1562.75C845.982 1560.51 848.475 1558.3 851.018 1556.14L851.342 1556.52C853.866 1554.37 856.439 1552.26 859.058 1550.2L858.749 1549.81C861.357 1547.75 864.011 1545.74 866.71 1543.78L867.005 1544.18C869.682 1542.23 872.403 1540.33 875.166 1538.47L874.887 1538.05C877.64 1536.2 880.435 1534.39 883.271 1532.63L883.534 1533.06C886.349 1531.31 889.204 1529.61 892.097 1527.95L891.849 1527.52C894.732 1525.87 897.653 1524.27 900.61 1522.71L900.843 1523.15C903.775 1521.61 906.744 1520.12 909.747 1518.67L909.53 1518.22C912.519 1516.79 915.542 1515.4 918.597 1514.05L918.798 1514.51C921.831 1513.18 924.897 1511.9 927.993 1510.66L927.808 1510.2C930.892 1508.97 934.007 1507.79 937.152 1506.66L937.321 1507.13C940.441 1506.01 943.59 1504.94 946.768 1503.92L946.615 1503.45C949.771 1502.43 952.954 1501.47 956.164 1500.56L956.301 1501.04C959.485 1500.13 962.696 1499.28 965.931 1498.48L965.81 1497.99C969.031 1497.19 972.276 1496.44 975.544 1495.74L975.649 1496.23C978.891 1495.54 982.157 1494.9 985.444 1494.31L985.356 1493.82C988.616 1493.24 991.898 1492.7 995.201 1492.22L995.272 1492.72C998.548 1492.24 1001.84 1491.82 1005.16 1491.44L1005.1 1490.95C1008.4 1490.58 1011.71 1490.26 1015.05 1489.99L1015.09 1490.49C1018.39 1490.23 1021.71 1490.01 1025.04 1489.86L1025.02 1489.36C1028.33 1489.2 1031.65 1489.09 1034.99 1489.04L1035 1489.54C1036.66 1489.51 1038.33 1489.5 1040 1489.5C1041.67 1489.5 1043.34 1489.51 1045 1489.54L1045.01 1489.04C1048.35 1489.09 1051.67 1489.2 1054.98 1489.36L1054.96 1489.86C1058.29 1490.01 1061.61 1490.23 1064.91 1490.49L1064.95 1489.99C1068.29 1490.26 1071.6 1490.58 1074.9 1490.95L1074.84 1491.44C1078.16 1491.82 1081.45 1492.24 1084.73 1492.72L1084.8 1492.22C1088.1 1492.7 1091.38 1493.24 1094.64 1493.82L1094.56 1494.31C1097.84 1494.9 1101.11 1495.54 1104.35 1496.23L1104.46 1495.74C1107.72 1496.44 1110.97 1497.19 1114.19 1497.99L1114.07 1498.48C1117.3 1499.28 1120.51 1500.13 1123.7 1501.04L1123.84 1500.56C1127.05 1501.47 1130.23 1502.43 1133.38 1503.45L1133.23 1503.92C1136.41 1504.94 1139.56 1506.01 1142.68 1507.13L1142.85 1506.66C1145.99 1507.79 1149.11 1508.97 1152.19 1510.2L1152.01 1510.66C1155.1 1511.9 1158.17 1513.18 1161.2 1514.51L1161.4 1514.05C1164.46 1515.4 1167.48 1516.79 1170.47 1518.22L1170.25 1518.67C1173.26 1520.12 1176.22 1521.61 1179.16 1523.15L1179.39 1522.71C1182.35 1524.27 1185.27 1525.87 1188.15 1527.52L1187.9 1527.95C1190.8 1529.61 1193.65 1531.31 1196.47 1533.06L1196.73 1532.63C1199.57 1534.39 1202.36 1536.2 1205.11 1538.05L1204.83 1538.47C1207.6 1540.33 1210.32 1542.23 1213 1544.18L1213.29 1543.78C1215.99 1545.74 1218.64 1547.75 1221.25 1549.81L1220.94 1550.2C1223.56 1552.26 1226.13 1554.37 1228.66 1556.52L1228.98 1556.14C1231.52 1558.3 1234.02 1560.51 1236.46 1562.75L1236.12 1563.12C1238.57 1565.38 1240.97 1567.67 1243.32 1570.01L1243.68 1569.66C1246.04 1572.01 1248.35 1574.41 1250.61 1576.84L1250.24 1577.18C1252.5 1579.62 1254.71 1582.1 1256.87 1584.62L1257.25 1584.3C1259.41 1586.83 1261.52 1589.41 1263.58 1592.03L1263.18 1592.33C1265.24 1594.95 1267.23 1597.61 1269.17 1600.3L1269.58 1600.01C1271.52 1602.72 1273.41 1605.46 1275.23 1608.24L1274.81 1608.51C1276.64 1611.29 1278.4 1614.11 1280.1 1616.96L1280.53 1616.71C1282.23 1619.57 1283.87 1622.47 1285.44 1625.4L1285 1625.63C1286.57 1628.56 1288.08 1631.52 1289.52 1634.51L1289.97 1634.3C1291.41 1637.3 1292.78 1640.33 1294.08 1643.4L1293.62 1643.59C1294.92 1646.65 1296.15 1649.73 1297.31 1652.85L1297.78 1652.67C1298.94 1655.79 1300.03 1658.94 1301.04 1662.11L1300.56 1662.26C1301.57 1665.42 1302.51 1668.61 1303.37 1671.82L1303.85 1671.69C1304.71 1674.9 1305.5 1678.13 1306.21 1681.39L1305.72 1681.5C1306.42 1684.74 1307.05 1688 1307.61 1691.28L1308.1 1691.2C1308.65 1694.48 1309.12 1697.77 1309.52 1701.09L1309.02 1701.15C1309.42 1704.43 1309.73 1707.73 1309.97 1711.06L1310.47 1711.02Z" stroke="black" stroke-opacity="0.49" stroke-dasharray="10 10"/>
<path d="M1743.47 4044.02C1743.7 4047.33 1743.86 4050.65 1743.94 4053.99L1743.44 4054C1743.48 4055.66 1743.5 4057.33 1743.5 4059C1743.5 4060.67 1743.48 4062.34 1743.44 4064L1743.94 4064.01C1743.86 4067.35 1743.7 4070.67 1743.47 4073.98L1742.97 4073.94C1742.73 4077.27 1742.42 4080.57 1742.02 4083.85L1742.52 4083.91C1742.12 4087.23 1741.65 4090.53 1741.1 4093.8L1740.61 4093.72C1740.05 4097 1739.42 4100.26 1738.72 4103.5L1739.21 4103.61C1738.5 4106.87 1737.71 4110.1 1736.85 4113.31L1736.37 4113.18C1735.51 4116.39 1734.57 4119.58 1733.56 4122.74L1734.04 4122.89C1733.03 4126.06 1731.94 4129.21 1730.78 4132.33L1730.31 4132.15C1729.15 4135.27 1727.92 4138.35 1726.62 4141.41L1727.08 4141.6C1725.78 4144.67 1724.41 4147.7 1722.97 4150.7L1722.52 4150.49C1721.08 4153.48 1719.57 4156.44 1718 4159.37L1718.44 4159.6C1716.87 4162.53 1715.23 4165.43 1713.53 4168.29L1713.1 4168.04C1711.4 4170.89 1709.64 4173.71 1707.81 4176.49L1708.23 4176.76C1706.41 4179.54 1704.52 4182.28 1702.58 4184.99L1702.17 4184.7C1700.23 4187.39 1698.24 4190.05 1696.18 4192.67L1696.58 4192.97C1694.52 4195.59 1692.41 4198.17 1690.25 4200.7L1689.87 4200.38C1687.71 4202.9 1685.5 4205.38 1683.24 4207.82L1683.61 4208.16C1681.35 4210.59 1679.04 4212.99 1676.68 4215.34L1676.32 4214.99C1673.97 4217.33 1671.57 4219.62 1669.12 4221.88L1669.46 4222.25C1667.02 4224.49 1664.52 4226.7 1661.98 4228.86L1661.66 4228.48C1659.13 4230.63 1656.56 4232.74 1653.94 4234.8L1654.25 4235.19C1651.64 4237.25 1648.99 4239.26 1646.29 4241.22L1646 4240.82C1643.32 4242.77 1640.6 4244.67 1637.83 4246.53L1638.11 4246.95C1635.36 4248.8 1632.57 4250.61 1629.73 4252.37L1629.47 4251.94C1626.65 4253.69 1623.8 4255.39 1620.9 4257.05L1621.15 4257.48C1618.27 4259.13 1615.35 4260.73 1612.39 4262.29L1612.16 4261.85C1609.22 4263.39 1606.26 4264.88 1603.25 4266.33L1603.47 4266.78C1600.48 4268.21 1597.46 4269.6 1594.4 4270.95L1594.2 4270.49C1591.17 4271.82 1588.1 4273.1 1585.01 4274.34L1585.19 4274.8C1582.11 4276.03 1578.99 4277.21 1575.85 4278.34L1575.68 4277.87C1572.56 4278.99 1569.41 4280.06 1566.23 4281.08L1566.38 4281.55C1563.23 4282.57 1560.05 4283.53 1556.84 4284.44L1556.7 4283.96C1553.51 4284.87 1550.3 4285.72 1547.07 4286.52L1547.19 4287.01C1543.97 4287.81 1540.72 4288.56 1537.46 4289.26L1537.35 4288.77C1534.11 4289.46 1530.84 4290.1 1527.56 4290.69L1527.64 4291.18C1524.38 4291.76 1521.1 4292.3 1517.8 4292.78L1517.73 4292.28C1514.45 4292.76 1511.16 4293.18 1507.84 4293.56L1507.9 4294.05C1504.6 4294.42 1501.29 4294.74 1497.95 4295.01L1497.91 4294.51C1494.61 4294.77 1491.29 4294.99 1487.96 4295.14L1487.98 4295.64C1484.67 4295.8 1481.35 4295.91 1478.01 4295.96L1478 4295.46C1476.34 4295.49 1474.67 4295.5 1473 4295.5C1471.33 4295.5 1469.66 4295.49 1468 4295.46L1467.99 4295.96C1464.65 4295.91 1461.33 4295.8 1458.02 4295.64L1458.04 4295.14C1454.71 4294.99 1451.39 4294.77 1448.09 4294.51L1448.05 4295.01C1444.71 4294.74 1441.4 4294.42 1438.1 4294.05L1438.16 4293.56C1434.84 4293.18 1431.55 4292.76 1428.27 4292.28L1428.2 4292.78C1424.9 4292.3 1421.62 4291.76 1418.36 4291.18L1418.44 4290.69C1415.16 4290.1 1411.89 4289.46 1408.65 4288.77L1408.54 4289.26C1405.28 4288.56 1402.03 4287.81 1398.81 4287.01L1398.93 4286.52C1395.7 4285.72 1392.49 4284.87 1389.3 4283.96L1389.16 4284.44C1385.95 4283.53 1382.77 4282.57 1379.62 4281.55L1379.77 4281.08C1376.59 4280.06 1373.44 4278.99 1370.32 4277.87L1370.15 4278.34C1367.01 4277.21 1363.89 4276.03 1360.81 4274.8L1360.99 4274.34C1357.9 4273.1 1354.83 4271.82 1351.8 4270.49L1351.6 4270.95C1348.54 4269.6 1345.52 4268.21 1342.53 4266.78L1342.75 4266.33C1339.74 4264.88 1336.78 4263.39 1333.84 4261.85L1333.61 4262.29C1330.65 4260.73 1327.73 4259.13 1324.85 4257.48L1325.1 4257.05C1322.2 4255.39 1319.35 4253.69 1316.53 4251.94L1316.27 4252.37C1313.44 4250.61 1310.64 4248.8 1307.89 4246.95L1308.17 4246.53C1305.4 4244.67 1302.68 4242.77 1300 4240.82L1299.71 4241.22C1297.01 4239.26 1294.36 4237.25 1291.75 4235.19L1292.06 4234.8C1289.44 4232.74 1286.87 4230.63 1284.34 4228.48L1284.02 4228.86C1281.48 4226.7 1278.98 4224.49 1276.54 4222.25L1276.88 4221.88C1274.43 4219.62 1272.03 4217.33 1269.68 4214.99L1269.32 4215.34C1266.96 4212.99 1264.65 4210.59 1262.39 4208.16L1262.76 4207.82C1260.5 4205.38 1258.29 4202.9 1256.13 4200.38L1255.75 4200.7C1253.59 4198.17 1251.48 4195.59 1249.42 4192.97L1249.82 4192.67C1247.76 4190.05 1245.77 4187.39 1243.83 4184.7L1243.42 4184.99C1241.48 4182.28 1239.59 4179.54 1237.77 4176.76L1238.19 4176.49C1236.36 4173.71 1234.6 4170.89 1232.9 4168.04L1232.47 4168.29C1230.77 4165.43 1229.13 4162.53 1227.56 4159.6L1228 4159.37C1226.43 4156.44 1224.92 4153.48 1223.48 4150.49L1223.03 4150.7C1221.59 4147.7 1220.22 4144.67 1218.92 4141.6L1219.38 4141.41C1218.08 4138.35 1216.85 4135.27 1215.69 4132.15L1215.22 4132.33C1214.06 4129.21 1212.97 4126.06 1211.96 4122.89L1212.44 4122.74C1211.43 4119.58 1210.49 4116.39 1209.63 4113.18L1209.15 4113.31C1208.29 4110.1 1207.5 4106.87 1206.79 4103.61L1207.28 4103.5C1206.58 4100.26 1205.95 4097 1205.39 4093.72L1204.9 4093.8C1204.35 4090.52 1203.88 4087.23 1203.48 4083.91L1203.98 4083.85C1203.58 4080.57 1203.27 4077.27 1203.03 4073.94L1202.53 4073.98C1202.3 4070.67 1202.14 4067.35 1202.06 4064.01L1202.56 4064C1202.52 4062.34 1202.5 4060.67 1202.5 4059C1202.5 4057.33 1202.52 4055.66 1202.56 4054L1202.06 4053.99C1202.14 4050.65 1202.3 4047.33 1202.53 4044.02L1203.03 4044.06C1203.27 4040.73 1203.58 4037.43 1203.98 4034.15L1203.48 4034.09C1203.88 4030.77 1204.35 4027.47 1204.9 4024.2L1205.39 4024.28C1205.95 4021 1206.58 4017.74 1207.28 4014.5L1206.79 4014.39C1207.5 4011.13 1208.29 4007.9 1209.15 4004.69L1209.63 4004.82C1210.49 4001.61 1211.43 3998.42 1212.44 3995.26L1211.96 3995.11C1212.97 3991.94 1214.06 3988.79 1215.22 3985.67L1215.69 3985.85C1216.85 3982.73 1218.08 3979.65 1219.38 3976.59L1218.92 3976.4C1220.22 3973.33 1221.59 3970.3 1223.03 3967.3L1223.48 3967.51C1224.92 3964.52 1226.43 3961.56 1228 3958.63L1227.56 3958.4C1229.13 3955.47 1230.77 3952.57 1232.47 3949.71L1232.9 3949.96C1234.6 3947.11 1236.36 3944.29 1238.19 3941.51L1237.77 3941.24C1239.59 3938.46 1241.48 3935.72 1243.42 3933.01L1243.83 3933.3C1245.77 3930.61 1247.76 3927.95 1249.82 3925.33L1249.42 3925.03C1251.48 3922.41 1253.59 3919.83 1255.75 3917.3L1256.13 3917.62C1258.29 3915.1 1260.5 3912.62 1262.76 3910.18L1262.39 3909.84C1264.65 3907.41 1266.96 3905.01 1269.32 3902.66L1269.68 3903.01C1272.03 3900.67 1274.43 3898.38 1276.88 3896.12L1276.54 3895.75C1278.98 3893.51 1281.48 3891.3 1284.02 3889.14L1284.34 3889.52C1286.87 3887.37 1289.44 3885.26 1292.06 3883.2L1291.75 3882.81C1294.36 3880.75 1297.01 3878.74 1299.71 3876.78L1300 3877.18C1302.68 3875.23 1305.4 3873.33 1308.17 3871.47L1307.89 3871.05C1310.64 3869.2 1313.43 3867.39 1316.27 3865.63L1316.53 3866.06C1319.35 3864.31 1322.2 3862.61 1325.1 3860.95L1324.85 3860.52C1327.73 3858.87 1330.65 3857.27 1333.61 3855.71L1333.84 3856.15C1336.78 3854.61 1339.74 3853.12 1342.75 3851.67L1342.53 3851.22C1345.52 3849.79 1348.54 3848.4 1351.6 3847.05L1351.8 3847.51C1354.83 3846.18 1357.9 3844.9 1360.99 3843.66L1360.81 3843.2C1363.89 3841.97 1367.01 3840.79 1370.15 3839.66L1370.32 3840.13C1373.44 3839.01 1376.59 3837.94 1379.77 3836.92L1379.62 3836.45C1382.77 3835.43 1385.95 3834.47 1389.16 3833.56L1389.3 3834.04C1392.49 3833.13 1395.7 3832.28 1398.93 3831.48L1398.81 3830.99C1402.03 3830.19 1405.28 3829.44 1408.54 3828.74L1408.65 3829.23C1411.89 3828.54 1415.16 3827.9 1418.44 3827.31L1418.36 3826.82C1421.62 3826.24 1424.9 3825.7 1428.2 3825.22L1428.27 3825.72C1431.55 3825.24 1434.84 3824.82 1438.16 3824.44L1438.1 3823.95C1441.4 3823.58 1444.71 3823.26 1448.05 3822.99L1448.09 3823.49C1451.39 3823.23 1454.71 3823.01 1458.04 3822.86L1458.02 3822.36C1461.33 3822.2 1464.65 3822.09 1467.99 3822.04L1468 3822.54C1469.66 3822.51 1471.33 3822.5 1473 3822.5C1474.67 3822.5 1476.34 3822.51 1478 3822.54L1478.01 3822.04C1481.35 3822.09 1484.67 3822.2 1487.98 3822.36L1487.96 3822.86C1491.29 3823.01 1494.61 3823.23 1497.91 3823.49L1497.95 3822.99C1501.29 3823.26 1504.6 3823.58 1507.9 3823.95L1507.84 3824.44C1511.16 3824.82 1514.45 3825.24 1517.73 3825.72L1517.8 3825.22C1521.1 3825.7 1524.38 3826.24 1527.64 3826.82L1527.56 3827.31C1530.84 3827.9 1534.11 3828.54 1537.35 3829.23L1537.46 3828.74C1540.72 3829.44 1543.97 3830.19 1547.19 3830.99L1547.07 3831.48C1550.3 3832.28 1553.51 3833.13 1556.7 3834.04L1556.84 3833.56C1560.05 3834.47 1563.23 3835.43 1566.38 3836.45L1566.23 3836.92C1569.41 3837.94 1572.56 3839.01 1575.68 3840.13L1575.85 3839.66C1578.99 3840.79 1582.11 3841.97 1585.19 3843.2L1585.01 3843.66C1588.1 3844.9 1591.17 3846.18 1594.2 3847.51L1594.4 3847.05C1597.46 3848.4 1600.48 3849.79 1603.47 3851.22L1603.25 3851.67C1606.26 3853.12 1609.22 3854.61 1612.16 3856.15L1612.39 3855.71C1615.35 3857.27 1618.27 3858.87 1621.15 3860.52L1620.9 3860.95C1623.8 3862.61 1626.65 3864.31 1629.47 3866.06L1629.73 3865.63C1632.57 3867.39 1635.36 3869.2 1638.11 3871.05L1637.83 3871.47C1640.6 3873.33 1643.32 3875.23 1646 3877.18L1646.29 3876.78C1648.99 3878.74 1651.64 3880.75 1654.25 3882.81L1653.94 3883.2C1656.56 3885.26 1659.13 3887.37 1661.66 3889.52L1661.98 3889.14C1664.52 3891.3 1667.02 3893.51 1669.46 3895.75L1669.12 3896.12C1671.57 3898.38 1673.97 3900.67 1676.32 3903.01L1676.68 3902.66C1679.04 3905.01 1681.35 3907.41 1683.61 3909.84L1683.24 3910.18C1685.5 3912.62 1687.71 3915.1 1689.87 3917.62L1690.25 3917.3C1692.41 3919.83 1694.52 3922.41 1696.58 3925.03L1696.18 3925.33C1698.24 3927.95 1700.23 3930.61 1702.17 3933.3L1702.58 3933.01C1704.52 3935.72 1706.41 3938.46 1708.23 3941.24L1707.81 3941.51C1709.64 3944.29 1711.4 3947.11 1713.1 3949.96L1713.53 3949.71C1715.23 3952.57 1716.87 3955.47 1718.44 3958.4L1718 3958.63C1719.57 3961.56 1721.08 3964.52 1722.52 3967.51L1722.97 3967.3C1724.41 3970.3 1725.78 3973.33 1727.08 3976.4L1726.62 3976.59C1727.92 3979.65 1729.15 3982.73 1730.31 3985.85L1730.78 3985.67C1731.94 3988.79 1733.03 3991.94 1734.04 3995.11L1733.56 3995.26C1734.57 3998.42 1735.51 4001.61 1736.37 4004.82L1736.85 4004.69C1737.71 4007.9 1738.5 4011.13 1739.21 4014.39L1738.72 4014.5C1739.42 4017.74 1740.05 4021 1740.61 4024.28L1741.1 4024.2C1741.65 4027.48 1742.12 4030.77 1742.52 4034.09L1742.02 4034.15C1742.42 4037.43 1742.73 4040.73 1742.97 4044.06L1743.47 4044.02Z" stroke="black" stroke-opacity="0.49" stroke-dasharray="10 10"/>
<path d="M251.978 31.9081C252.43 35.3296 252.734 38.7899 252.887 42.284L252.387 42.3058C252.462 44.0291 252.5 45.7607 252.5 47.5C252.5 49.2393 252.462 50.9709 252.387 52.6942L252.887 52.716C252.734 56.2101 252.43 59.6703 251.978 63.0919L251.483 63.0265C251.028 66.4722 250.424 69.8785 249.677 73.2404L250.165 73.349C249.409 76.7493 248.506 80.1044 247.463 83.409L246.986 83.2585C245.944 86.5607 244.761 89.8124 243.443 93.0086L243.905 93.1992C242.582 96.4086 241.123 99.562 239.534 102.654L239.09 102.426C237.511 105.498 235.805 108.51 233.975 111.457L234.4 111.721C232.574 114.663 230.626 117.539 228.562 120.345L228.159 120.049C226.115 122.828 223.958 125.538 221.692 128.173L222.071 128.499C219.817 131.121 217.456 133.669 214.995 136.139L214.64 135.786C212.207 138.227 209.675 140.593 207.049 142.876L207.377 143.254C204.77 145.52 202.072 147.707 199.287 149.81L198.986 149.411C196.236 151.487 193.401 153.48 190.487 155.387L190.761 155.805C187.871 157.695 184.903 159.5 181.863 161.216L181.617 160.78C178.617 162.473 175.547 164.077 172.409 165.591L172.626 166.041C169.516 167.541 166.341 168.952 163.104 170.269L162.916 169.806C159.728 171.103 156.481 172.309 153.179 173.42L153.339 173.894C150.065 174.996 146.737 176.005 143.36 176.916L143.23 176.434C139.91 177.33 136.542 178.132 133.131 178.837L133.232 179.326C129.853 180.025 126.431 180.627 122.97 181.131L122.898 180.636C119.492 181.132 116.048 181.531 112.571 181.832L112.614 182.33C109.181 182.626 105.715 182.826 102.22 182.926L102.206 182.426C100.478 182.475 98.7421 182.5 97 182.5C95.2579 182.5 93.5224 182.475 91.7941 182.426L91.7799 182.926C88.2851 182.826 84.8194 182.626 81.3865 182.33L81.4295 181.832C77.952 181.531 74.5083 181.132 71.1022 180.636L71.0302 181.131C67.5695 180.627 64.1474 180.025 60.7679 179.326L60.8691 178.837C57.4579 178.132 54.0903 177.33 50.7705 176.434L50.6402 176.916C47.2632 176.005 43.9354 174.996 40.6611 173.894L40.8206 173.42C37.519 172.309 34.272 171.103 31.084 169.806L30.8956 170.269C27.6595 168.952 24.484 167.541 21.3738 166.041L21.591 165.591C18.4534 164.077 15.3825 162.473 12.383 160.78L12.1374 161.216C9.09663 159.5 6.12901 157.695 3.23945 155.805L3.51316 155.387C0.598671 153.48 -2.23603 151.487 -4.98582 149.411L-5.28708 149.81C-8.07209 147.707 -10.7704 145.52 -13.3768 143.254L-13.0487 142.876C-15.6749 140.593 -18.2073 138.227 -20.6404 135.786L-20.9946 136.139C-23.4563 133.669 -25.8169 131.121 -28.0708 128.499L-27.6917 128.173C-29.9577 125.538 -32.1154 122.828 -34.1591 120.049L-34.5619 120.345C-36.6257 117.539 -38.5737 114.663 -40.4002 111.721L-39.9754 111.457C-41.8046 108.51 -43.5113 105.498 -45.0896 102.426L-45.5343 102.654C-47.1227 99.5621 -48.5817 96.4086 -49.9051 93.1992L-49.4429 93.0086C-50.7609 89.8125 -51.944 86.5607 -52.9862 83.2585L-53.463 83.409C-54.506 80.1044 -55.4085 76.7493 -56.1647 73.349L-55.6766 73.2404C-56.4243 69.8786 -57.0282 66.4722 -57.4827 63.0265L-57.9784 63.0919C-58.4297 59.6704 -58.7343 56.2101 -58.8865 52.716L-58.387 52.6942C-58.4621 50.9709 -58.5 49.2393 -58.5 47.5C-58.5 45.7607 -58.4621 44.0291 -58.387 42.3058L-58.8865 42.284C-58.7343 38.7899 -58.4297 35.3297 -57.9784 31.9081L-57.4827 31.9735C-57.0282 28.5278 -56.4243 25.1215 -55.6766 21.7596L-56.1647 21.651C-55.4085 18.2507 -54.506 14.8956 -53.463 11.591L-52.9862 11.7415C-51.944 8.43931 -50.7609 5.18756 -49.4429 1.99143L-49.9052 1.80081C-48.5817 -1.40861 -47.1227 -4.56203 -45.5344 -7.65425L-45.0896 -7.42579C-43.5113 -10.4983 -41.8046 -13.5104 -39.9754 -16.4568L-40.4002 -16.7205C-38.5737 -19.6625 -36.6257 -22.5392 -34.5619 -25.3454L-34.1591 -25.0492C-32.1154 -27.828 -29.9578 -30.5376 -27.6917 -33.1732L-28.0709 -33.4991C-25.8169 -36.1206 -23.4563 -38.6688 -20.9946 -41.1389L-20.6405 -40.786C-18.2073 -43.2275 -15.6749 -45.5926 -13.0487 -47.8765L-13.3768 -48.2537C-10.7704 -50.5204 -8.07209 -52.7073 -5.28708 -54.8097L-4.98582 -54.4107C-2.23603 -56.4866 0.598667 -58.48 3.51316 -60.3866L3.23944 -60.805C6.129 -62.6953 9.09663 -64.5003 12.1374 -66.2158L12.383 -65.7804C15.3825 -67.4726 18.4534 -69.0775 21.591 -70.5909L21.3738 -71.0413C24.484 -72.5415 27.6595 -73.952 30.8956 -75.2689L31.084 -74.8057C34.2719 -76.103 37.519 -77.3091 40.8206 -78.4202L40.6611 -78.8941C43.9354 -79.9959 47.2632 -81.0046 50.6401 -81.9162L50.7705 -81.4335C54.0903 -82.3298 57.4579 -83.132 60.869 -83.8367L60.7679 -84.3264C64.1474 -85.0246 67.5695 -85.6272 71.0302 -86.1309L71.1022 -85.6361C74.5083 -86.1319 77.952 -86.5315 81.4294 -86.8316L81.3865 -87.3298C84.8194 -87.6261 88.2851 -87.8258 91.7798 -87.9256L91.7941 -87.4258C93.5224 -87.4751 95.2579 -87.5 97 -87.5C98.7421 -87.5 100.478 -87.4751 102.206 -87.4258L102.22 -87.9256C105.715 -87.8258 109.181 -87.6261 112.614 -87.3298L112.571 -86.8317C116.048 -86.5315 119.492 -86.1319 122.898 -85.6361L122.97 -86.1309C126.431 -85.6272 129.853 -85.0246 133.232 -84.3264L133.131 -83.8367C136.542 -83.132 139.91 -82.3298 143.23 -81.4335L143.36 -81.9162C146.737 -81.0046 150.065 -79.9959 153.339 -78.8941L153.179 -78.4202C156.481 -77.3091 159.728 -76.103 162.916 -74.8057L163.104 -75.2689C166.34 -73.952 169.516 -72.5415 172.626 -71.0413L172.409 -70.5909C175.547 -69.0775 178.617 -67.4726 181.617 -65.7804L181.863 -66.2158C184.903 -64.5003 187.871 -62.6953 190.761 -60.805L190.487 -60.3866C193.401 -58.48 196.236 -56.4866 198.986 -54.4107L199.287 -54.8097C202.072 -52.7073 204.77 -50.5204 207.377 -48.2538L207.049 -47.8765C209.675 -45.5926 212.207 -43.2275 214.64 -40.786L214.995 -41.139C217.456 -38.6688 219.817 -36.1206 222.071 -33.4991L221.692 -33.1732C223.958 -30.5376 226.115 -27.828 228.159 -25.0492L228.562 -25.3454C230.626 -22.5392 232.574 -19.6625 234.4 -16.7206L233.975 -16.4568C235.805 -13.5104 237.511 -10.4984 239.09 -7.42583L239.534 -7.65429C241.123 -4.56207 242.582 -1.40865 243.905 1.80077L243.443 1.99139C244.761 5.18753 245.944 8.43929 246.986 11.7415L247.463 11.591C248.506 14.8956 249.409 18.2507 250.165 21.651L249.677 21.7596C250.424 25.1214 251.028 28.5277 251.483 31.9735L251.978 31.9081Z" stroke="#3688AB" stroke-opacity="0.3" stroke-dasharray="10 10"/>
<line x1="253.53" y1="274.005" x2="248.5" y2="771.005" stroke="#6995AE" stroke-opacity="0.43"/>
<line x1="285.53" y1="274.005" x2="280.5" y2="771.005" stroke="#6995AE" stroke-opacity="0.43"/>
<line x1="317.53" y1="274.005" x2="312.5" y2="771.005" stroke="#6995AE" stroke-opacity="0.43"/>
<rect x="187.333" y="949.63" width="563.783" height="315.224" transform="rotate(-15.8972 187.333 949.63)" fill="#B0D2D7" fill-opacity="0.56"/>
<rect x="187.951" y="949.974" width="562.783" height="314.224" transform="rotate(-15.8972 187.951 949.974)" stroke="black" stroke-opacity="0.5"/>
<rect x="1493.43" y="2255.8" width="563.783" height="315.224" transform="rotate(90.3267 1493.43 2255.8)" fill="#D3D8E8"/>
<rect x="1492.93" y="2256.29" width="562.783" height="314.224" transform="rotate(90.3267 1492.93 2256.29)" stroke="black" stroke-opacity="0.5"/>
<path d="M1380.08 1379.64L1512.37 1718.11L1163.85 1686.58L1380.08 1379.64Z" fill="#D3E0E8" fill-opacity="0.5"/>
<path d="M1164.75 1686.16L1379.94 1380.69L1511.6 1717.54L1164.75 1686.16Z" stroke="black" stroke-opacity="0.5"/>
<path d="M1257.93 1292.38L1482.56 1455.76L1260.8 1558.96L1257.93 1292.38Z" fill="#D3E0E8" fill-opacity="0.5"/>
<path d="M1261.3 1558.18L1258.45 1293.36L1481.59 1455.66L1261.3 1558.18Z" stroke="black" stroke-opacity="0.5"/>
<path d="M277.083 2383.89L144.429 2722.21L-90.0584 2462.45L277.083 2383.89Z" fill="#D3E0E8"/>
<path d="M-89.1139 2462.75L276.272 2384.56L144.253 2721.27L-89.1139 2462.75Z" stroke="black" stroke-opacity="0.5"/>
<path d="M351.088 2323.2L179.384 2541.54L84.5801 2316.07L351.088 2323.2Z" fill="#D3E0E8"/>
<path d="M85.3449 2316.6L350.085 2323.68L179.52 2540.57L85.3449 2316.6Z" stroke="black" stroke-opacity="0.5"/>
<path d="M137.862 2453.38L367.591 2609.51L149.243 2719.74L137.862 2453.38Z" fill="#D3E0E8"/>
<path d="M149.719 2718.94L138.413 2454.34L366.619 2609.44L149.719 2718.94Z" stroke="black" stroke-opacity="0.5"/>
<path d="M313.099 3400.78L364.921 3836.03L-58.2377 3683.31L313.099 3400.78Z" fill="#D5D3E8"/>
<path d="M-57.2231 3683.14L312.69 3401.7L364.313 3835.28L-57.2231 3683.14Z" stroke="black" stroke-opacity="0.5"/>
<path d="M361.034 3295.62L296.344 3622.96L52.9796 3431.74L361.034 3295.62Z" fill="#D5D3E8"/>
<path d="M53.9408 3431.86L360.355 3296.46L296.01 3622.06L53.9408 3431.86Z" stroke="black" stroke-opacity="0.5"/>
<path d="M196.109 3550.59L551.659 3594.49L368.922 3830.77L196.109 3550.59Z" fill="#D5D3E8"/>
<path d="M368.983 3829.88L197.091 3551.19L550.746 3594.85L368.983 3829.88Z" stroke="black" stroke-opacity="0.5"/>
<path d="M1368.33 3986.7L1155.32 4369.78L901.87 3998.1L1368.33 3986.7Z" fill="#D5D3E8"/>
<path d="M902.788 3998.56L1367.46 3987.2L1155.27 4368.82L902.788 3998.56Z" stroke="black" stroke-opacity="0.5"/>
<path d="M1445.59 3706.6L1263.82 3986.41L1109.01 3718.4L1445.59 3706.6Z" fill="#D5D3E8"/>
<path d="M1109.86 3718.87L1444.65 3707.13L1263.84 3985.45L1109.86 3718.87Z" stroke="black" stroke-opacity="0.5"/>
<path d="M1197.68 3881.96L1511.41 4054.92L1253.92 4206.31L1197.68 3881.96Z" fill="#D5D3E8"/>
<path d="M1254.3 4205.5L1198.37 3882.88L1510.43 4054.92L1254.3 4205.5Z" stroke="black" stroke-opacity="0.5"/>
<g filter="url(#filter0_d_1_2)">
<path d="M651.306 2531.5L651.843 2516.4L652.343 2516.42L652.586 2509.57L658.956 2512.08L659.139 2511.62L673.197 2517.16L673.014 2517.63L687.071 2523.18L687.255 2522.71L701.312 2528.26L701.129 2528.72L715.186 2534.27L715.37 2533.8L729.427 2539.35L729.244 2539.81L743.301 2545.36L743.485 2544.89L757.542 2550.44L757.359 2550.91L771.417 2556.45L771.6 2555.99L785.658 2561.53L785.474 2562L799.532 2567.54L799.715 2567.08L813.773 2572.62L813.589 2573.09L827.647 2578.63L827.83 2578.17L841.888 2583.72L841.704 2584.18L855.762 2589.73L855.946 2589.26L870.003 2594.81L869.82 2595.27L883.877 2600.82L884.061 2600.35L898.118 2605.9L897.935 2606.36L911.992 2611.91L912.176 2611.45L926.233 2616.99L926.05 2617.46L940.108 2623L940.291 2622.54L954.349 2628.08L954.165 2628.55L968.223 2634.09L968.406 2633.63L982.464 2639.17L982.28 2639.64L996.338 2645.19L996.521 2644.72L1010.58 2650.27L1010.4 2650.73L1024.45 2656.28L1024.64 2655.81L1038.69 2661.36L1038.51 2661.82L1052.57 2667.37L1052.75 2666.9L1066.81 2672.45L1066.63 2672.92L1080.68 2678.46L1080.87 2678L1094.92 2683.54L1094.74 2684.01L1108.8 2689.55L1108.98 2689.09L1123.04 2694.63L1122.86 2695.1L1136.91 2700.64L1137.1 2700.18L1151.15 2705.73L1150.97 2706.19L1165.03 2711.74L1165.21 2711.27L1179.27 2716.82L1179.09 2717.28L1193.14 2722.83L1193.33 2722.36L1207.38 2727.91L1207.2 2728.37L1221.26 2733.92L1221.44 2733.45L1235.5 2739L1235.32 2739.47L1249.37 2745.01L1249.56 2744.55L1263.62 2750.09L1263.43 2750.56L1277.49 2756.1L1277.67 2755.64L1291.73 2761.18L1291.55 2761.65L1305.6 2767.2L1305.79 2766.73L1319.85 2772.28L1319.66 2772.74L1333.72 2778.29L1333.9 2777.82L1347.96 2783.37L1347.78 2783.83L1361.83 2789.38L1362.02 2788.91L1376.08 2794.46L1375.89 2794.92L1389.95 2800.47L1390.13 2800.01L1404.19 2805.55L1404.01 2806.02L1418.06 2811.56L1418.25 2811.1L1432.31 2816.64L1432.12 2817.11L1446.18 2822.65L1446.36 2822.19L1460.42 2827.73L1460.24 2828.2L1474.29 2833.75L1474.48 2833.28L1488.54 2838.83L1488.35 2839.29L1502.41 2844.84L1502.59 2844.37L1516.65 2849.92L1516.47 2850.38L1530.53 2855.93L1530.71 2855.46L1544.77 2861.01L1544.58 2861.48L1558.64 2867.02L1558.82 2866.56L1572.88 2872.1L1572.7 2872.57L1578.83 2874.99L1573.3 2878.61L1573.57 2879.02L1560.9 2887.32L1560.62 2886.91L1547.95 2895.2L1548.22 2895.62L1535.55 2903.92L1535.28 2903.5L1522.6 2911.8L1522.88 2912.22L1510.2 2920.52L1509.93 2920.1L1497.26 2928.4L1497.53 2928.82L1484.86 2937.12L1484.58 2936.7L1471.91 2945L1472.18 2945.42L1459.51 2953.72L1459.23 2953.3L1446.56 2961.6L1446.83 2962.02L1434.16 2970.32L1433.89 2969.9L1421.21 2978.2L1421.49 2978.61L1408.81 2986.91L1408.54 2986.49L1395.86 2994.79L1396.14 2995.21L1383.46 3003.51L1383.19 3003.09L1370.52 3011.39L1370.79 3011.81L1358.12 3020.11L1357.84 3019.69L1345.17 3027.99L1345.44 3028.41L1332.77 3036.71L1332.5 3036.29L1319.82 3044.59L1320.1 3045.01L1307.42 3053.31L1307.15 3052.89L1294.47 3061.19L1294.75 3061.61L1282.07 3069.9L1281.8 3069.49L1269.13 3077.79L1269.4 3078.2L1256.73 3086.5L1256.45 3086.08L1243.78 3094.38L1244.05 3094.8L1231.38 3103.1L1231.1 3102.68L1218.43 3110.98L1218.7 3111.4L1206.03 3119.7L1205.76 3119.28L1193.08 3127.58L1193.36 3128L1180.68 3136.3L1180.41 3135.88L1167.74 3144.18L1168.01 3144.6L1155.34 3152.9L1155.06 3152.48L1142.39 3160.78L1142.66 3161.19L1129.99 3169.49L1129.71 3169.08L1117.04 3177.37L1117.31 3177.79L1104.64 3186.09L1104.37 3185.67L1091.69 3193.97L1091.97 3194.39L1079.29 3202.69L1079.02 3202.27L1066.34 3210.57L1066.62 3210.99L1053.95 3219.29L1053.67 3218.87L1041 3227.17L1041.27 3227.59L1028.6 3235.89L1028.32 3235.47L1015.65 3243.77L1015.92 3244.19L1003.25 3252.48L1002.98 3252.07L990.302 3260.37L990.576 3260.78L977.902 3269.08L977.628 3268.66L964.954 3276.96L965.228 3277.38L952.554 3285.68L952.28 3285.26L939.606 3293.56L939.88 3293.98L927.207 3302.28L926.933 3301.86L914.259 3310.16L914.533 3310.58L901.859 3318.88L901.585 3318.46L888.911 3326.76L889.185 3327.18L876.511 3335.48L876.237 3335.06L863.563 3343.36L863.837 3343.77L851.163 3352.07L850.889 3351.66L838.216 3359.95L838.49 3360.37L825.816 3368.67L825.542 3368.25L812.868 3376.55L813.142 3376.97L800.468 3385.27L800.194 3384.85L787.52 3393.15L787.794 3393.57L775.12 3401.87L774.846 3401.45L762.172 3409.75L762.446 3410.17L749.773 3418.47L749.499 3418.05L736.825 3426.35L737.099 3426.77L724.425 3435.07L724.151 3434.65L711.477 3442.95L711.751 3443.36L699.077 3451.66L698.803 3451.25L686.129 3459.54L686.403 3459.96L673.729 3468.26L673.455 3467.84L660.782 3476.14L661.056 3476.56L648.382 3484.86L648.108 3484.44L635.434 3492.74L635.708 3493.16L623.034 3501.46L622.76 3501.04L617.231 3504.66L617.465 3498.07L616.965 3498.06L617.502 3482.95L618.002 3482.97L618.538 3467.87L618.038 3467.85L618.575 3452.75L619.075 3452.77L619.611 3437.66L619.112 3437.65L619.648 3422.54L620.148 3422.56L620.684 3407.46L620.185 3407.44L620.721 3392.34L621.221 3392.36L621.758 3377.26L621.258 3377.24L621.795 3362.13L622.294 3362.15L622.831 3347.05L622.331 3347.03L622.868 3331.93L623.367 3331.95L623.904 3316.85L623.404 3316.83L623.941 3301.72L624.441 3301.74L624.977 3286.64L624.477 3286.62L625.014 3271.52L625.514 3271.54L626.05 3256.44L625.551 3256.42L626.087 3241.32L626.587 3241.33L627.123 3226.23L626.624 3226.21L627.16 3211.11L627.66 3211.13L628.197 3196.03L627.697 3196.01L628.233 3180.91L628.733 3180.92L629.27 3165.82L628.77 3165.8L629.307 3150.7L629.806 3150.72L630.343 3135.62L629.843 3135.6L630.38 3120.5L630.88 3120.51L631.416 3105.41L630.916 3105.39L631.453 3090.29L631.953 3090.31L632.489 3075.21L631.99 3075.19L632.526 3060.09L633.026 3060.1L633.562 3045L633.063 3044.98L633.599 3029.88L634.099 3029.9L634.636 3014.8L634.136 3014.78L634.672 2999.68L635.172 2999.69L635.709 2984.59L635.209 2984.57L635.746 2969.47L636.245 2969.49L636.782 2954.39L636.282 2954.37L636.819 2939.27L637.318 2939.28L637.855 2924.18L637.355 2924.16L637.892 2909.06L638.392 2909.08L638.928 2893.98L638.429 2893.96L638.965 2878.86L639.465 2878.87L640.001 2863.77L639.502 2863.75L640.038 2848.65L640.538 2848.67L641.075 2833.57L640.575 2833.55L641.111 2818.45L641.611 2818.46L642.148 2803.36L641.648 2803.34L642.185 2788.24L642.684 2788.26L643.221 2773.16L642.721 2773.14L643.258 2758.04L643.757 2758.05L644.294 2742.95L643.794 2742.93L644.331 2727.83L644.831 2727.85L645.367 2712.75L644.867 2712.73L645.404 2697.63L645.904 2697.64L646.44 2682.54L645.941 2682.52L646.477 2667.42L646.977 2667.44L647.513 2652.34L647.014 2652.32L647.55 2637.22L648.05 2637.23L648.587 2622.13L648.087 2622.11L648.624 2607.01L649.123 2607.03L649.66 2591.93L649.16 2591.91L649.697 2576.81L650.196 2576.82L650.733 2561.72L650.233 2561.7L650.77 2546.6L651.27 2546.62L651.806 2531.52L651.306 2531.5Z" stroke="black" stroke-opacity="0.4" stroke-dasharray="15 15" shape-rendering="crispEdges"/>
</g>
<path d="M1260.5 4443L1740.71 5140.5H780.289L1260.5 4443Z" fill="#D8D3E8" fill-opacity="0.6"/>
<path d="M781.24 5140L1260.5 4443.88L1739.76 5140H781.24Z" stroke="black" stroke-opacity="0.5"/>
<path d="M619.879 4642.46L1287.36 5163.58L371.258 5451.96L619.879 4642.46Z" fill="#D8D3E8" fill-opacity="0.6"/>
<path d="M372.015 5451.2L620.144 4643.3L1286.31 5163.39L372.015 5451.2Z" stroke="black" stroke-opacity="0.5"/>
<path d="M494.993 4483.06L555.902 5327.69L-272.291 4841.37L494.993 4483.06Z" fill="#D8D3E8" fill-opacity="0.6"/>
<path d="M-271.217 4841.42L494.546 4483.82L555.335 5326.78L-271.217 4841.42Z" stroke="black" stroke-opacity="0.5"/>
</g>
<defs>
<filter id="filter0_d_1_2" x="612.697" y="2508.85" width="971.213" height="1004.76" filterUnits="userSpaceOnUse" color-interpolation-filters="sRGB">
<feFlood flood-opacity="0" result="BackgroundImageFix"/>
<feColorMatrix in="SourceAlpha" type="matrix" values="0 0 0 0 0 0 0 0 0 0 0 0 0 0 0 0 0 0 127 0" result="hardAlpha"/>
<feOffset dy="4"/>
<feGaussianBlur stdDeviation="2"/>
<feComposite in2="hardAlpha" operator="out"/>
<feColorMatrix type="matrix" values="0 0 0 0 0 0 0 0 0 0 0 0 0 0 0 0 0 0 0.25 0"/>
<feBlend mode="normal" in2="BackgroundImageFix" result="effect1_dropShadow_1_2"/>
<feBlend mode="normal" in="SourceGraphic" in2="effect1_dropShadow_1_2" result="shape"/>
</filter>
<clipPath id="clip0_1_2">
<rect width="1440" height="5957" fill="white"/>
</clipPath>
</defs>
</svg>
